 <svg  version="1.0" xmlns="http://www.w3.org/2000/svg"  width="300.000000pt" height="315.000000pt" viewBox="0 0 300.000000 315.000000"  preserveAspectRatio="xMidYMid meet">  <g transform="translate(0.000000,315.000000) scale(0.100000,-0.100000)" fill="#d1d1d1" stroke="none"> <path d="M795 3116 c-110 -36 -255 -116 -255 -142 0 -6 11 -23 25 -38 31 -34 32 -78 3 -119 -26 -37 -35 -92 -14 -84 9 4 23 -7 36 -27 21 -30 62 -62 120 -94 28 -16 100 -43 100 -38 0 2 -34 20 -75 40 -92 45 -165 115 -165 157 0 31 38 79 62 79 8 0 38 -19 68 -41 77 -59 149 -90 233 -100 87 -11 149 -4 242 27 88 30 100 30 132 -2 20 -21 24 -32 20 -60 -9 -56 9 -47 25 13 14 47 14 60 2 87 l-13 31 -1 -27 c0 -26 -1 -26 -27 -12 -39 20 -72 18 -157 -11 -111 -37 -221 -35 -324 5 -42 17 -92 44 -109 59 -18 16 -46 34 -63 41 -16 7 -27 16 -24 21 3 5 -2 6 -10 3 -10 -4 -16 -1 -16 10 0 8 -9 24 -20 34 -19 18 -19 19 -3 35 10 8 38 27 63 42 38 23 41 26 16 20 -17 -3 -43 -16 -58 -27 -16 -11 -31 -18 -34 -15 -8 8 75 54 156 89 91 38 156 46 198 24 19 -10 32 -12 32 -6 0 6 -15 17 -32 25 l-33 14 33 1 c18 0 53 -10 78 -21 35 -17 56 -20 94 -16 92 11 223 -38 292 -110 34 -35 42 -62 25 -79 -4 -4 -7 -12 -7 -18 1 -6 9 -1 19 12 11 12 22 22 25 22 3 0 17 -22 31 -49 l25 -50 -43 -63 c-46 -68 -73 -125 -64 -134 3 -4 15 9 26 27 46 79 107 169 114 169 4 0 16 -15 27 -32 17 -28 20 -30 20 -12 0 12 -7 27 -15 34 -8 7 -15 17 -15 23 0 17 99 107 164 148 94 62 159 82 244 76 67 -4 87 2 62 18 -6 4 -41 7 -78 7 -119 0 -247 -66 -366 -187 l-64 -64 -27 52 c-33 63 -116 151 -170 179 -75 39 -175 60 -228 48 -29 -6 -45 -4 -74 11 -51 26 -140 24 -228 -5z"/> <path d="M2060 3071 c0 -11 83 -19 107 -10 11 4 4 8 -22 12 -56 9 -85 9 -85 -2z"/> <path d="M2196 3062 c5 -5 36 -16 69 -26 33 -10 85 -32 117 -48 l56 -30 -23 -34 c-25 -37 -25 -62 0 -100 10 -16 25 -24 43 -23 26 0 26 1 5 9 -51 21 -67 98 -27 131 21 17 52 -1 133 -83 88 -88 121 -152 166 -323 33 -124 37 -158 42 -295 4 -120 1 -170 -11 -223 -22 -96 -57 -158 -105 -190 -43 -28 -51 -26 -27 9 8 11 22 47 32 79 35 121 1 394 -77 630 -45 134 -62 163 -54 95 2 -25 7 -84 11 -132 3 -49 11 -91 16 -94 8 -5 9 17 5 72 l-6 79 24 -75 c25 -74 65 -256 65 -289 -1 -9 -13 11 -29 44 -69 148 -83 175 -91 170 -4 -2 12 -45 36 -95 49 -101 57 -135 26 -107 -10 10 -28 17 -40 17 -12 0 -22 4 -22 9 0 5 -16 32 -35 61 -19 29 -35 56 -35 62 0 5 -6 16 -14 23 -8 8 -22 51 -32 95 -10 44 -22 80 -26 80 -12 0 -10 -37 11 -156 33 -187 43 -312 38 -469 -5 -165 -13 -218 -52 -348 -14 -48 -24 -91 -21 -96 3 -4 -1 -32 -9 -62 -29 -106 -22 -164 26 -214 l28 -30 -37 -30 c-20 -16 -31 -22 -24 -13 19 24 6 42 -53 71 -59 29 -62 33 -42 62 35 52 63 185 86 411 11 102 -1 363 -24 534 -44 324 -57 392 -122 603 -3 9 -10 17 -15 17 -6 0 -7 -8 -3 -17 12 -27 53 -190 59 -231 3 -20 10 -66 17 -100 6 -35 8 -66 5 -69 -6 -6 -91 57 -146 109 -51 48 -90 103 -90 127 0 37 -18 22 -35 -28 -9 -27 -23 -55 -31 -61 -7 -7 -14 -16 -14 -21 0 -24 -167 -256 -177 -246 -3 3 41 140 61 189 6 17 13 23 18 16 7 -13 14 11 21 80 7 58 -6 45 -55 -54 -31 -65 -53 -95 -92 -128 -79 -66 -144 -107 -174 -109 -23 -2 -27 2 -26 23 9 149 66 326 134 417 24 32 48 61 54 65 6 4 7 10 3 14 -4 4 -18 -3 -32 -16 -14 -13 -25 -20 -25 -15 0 9 71 98 82 103 15 7 8 21 -7 15 -46 -17 -195 -295 -195 -364 0 -15 -4 -40 -10 -54 -5 -14 -13 -57 -16 -96 -4 -38 -10 -69 -13 -69 -3 0 -20 14 -38 30 -33 31 -48 36 -58 20 -3 -5 17 -31 45 -57 l52 -48 -7 -50 c-14 -98 -14 -138 1 -208 8 -40 23 -117 34 -172 10 -55 37 -174 60 -265 23 -91 45 -192 49 -225 10 -73 40 -136 75 -155 14 -7 26 -16 26 -19 -1 -21 -86 -88 -97 -77 -4 4 -1 12 5 18 20 20 14 62 -10 77 l-23 15 25 7 c20 6 17 7 -17 8 -54 1 -78 31 -67 85 7 41 9 42 30 21 9 -8 20 -15 26 -15 6 0 -2 11 -18 25 -24 20 -29 35 -36 92 -9 78 -20 135 -41 213 -8 30 -27 111 -41 180 -15 69 -29 134 -31 146 -3 11 -16 26 -30 32 -31 14 -62 64 -70 114 -7 39 -35 55 -35 20 0 -10 -13 -31 -29 -46 -29 -28 -29 -28 -40 -7 -9 16 -8 33 4 73 8 28 15 69 15 90 0 21 5 38 10 38 6 0 32 -11 59 -25 46 -23 49 -27 55 -72 11 -76 29 -146 44 -168 12 -18 13 -18 7 10 -4 17 -9 37 -11 45 -11 43 -34 241 -34 291 0 31 7 91 16 134 14 66 13 118 -1 103 -13 -12 -35 -174 -35 -252 l0 -88 -24 15 c-13 9 -39 20 -57 25 -32 8 -34 11 -41 66 -9 71 -49 199 -59 189 -4 -5 -9 -57 -11 -118 -2 -60 -7 -113 -13 -117 -6 -5 -5 -12 3 -20 6 -6 12 -28 12 -47 0 -32 5 -61 25 -148 3 -13 19 -38 36 -58 17 -19 26 -35 19 -35 -22 0 -65 31 -88 63 -18 24 -22 26 -17 10 5 -18 3 -20 -15 -16 -30 8 -83 64 -106 113 -10 22 -22 40 -26 40 -12 0 -10 -84 2 -117 10 -26 7 -25 -29 13 -39 41 -53 75 -65 163 l-7 44 41 -6 c30 -4 40 -2 40 9 0 10 -12 14 -38 14 l-39 0 -6 103 c-4 57 -2 130 3 162 8 52 7 77 -3 64 -12 -15 -97 -245 -107 -290 l-12 -55 -57 -13 c-56 -12 -100 -36 -89 -47 4 -3 15 -1 25 4 10 5 40 12 67 16 38 5 47 3 43 -8 -3 -7 -9 -35 -12 -62 -14 -91 -26 -87 -50 19 -5 25 -8 27 -21 16 -9 -7 -29 -36 -45 -64 l-30 -50 6 60 c3 33 9 72 11 88 3 15 1 27 -4 27 -12 0 -37 -217 -35 -307 2 -75 24 -134 66 -181 l20 -22 -20 0 c-12 0 -36 12 -53 27 -26 21 -33 24 -41 12 -11 -18 -11 -27 2 -91 20 -96 54 -186 91 -240 11 -16 17 -28 13 -28 -16 0 -143 64 -162 82 -13 12 -23 16 -23 10 0 -24 54 -99 89 -122 20 -13 30 -25 24 -27 -24 -8 -84 31 -127 81 -59 69 -90 137 -105 226 -7 41 -19 93 -27 115 -12 35 -25 132 -37 280 -3 32 -4 29 -5 -15 -2 -76 16 -241 28 -255 6 -7 9 -79 8 -175 -2 -158 -3 -161 -16 -109 -7 30 -18 59 -24 66 -11 14 -11 12 -32 193 -9 74 -16 187 -17 250 l-1 115 -19 -60 c-19 -62 -25 -100 -11 -79 4 7 8 -35 10 -93 1 -57 9 -136 17 -175 9 -39 14 -73 11 -75 -2 -2 -14 13 -27 34 -22 35 -24 49 -24 160 1 70 -3 117 -8 110 -9 -13 0 78 13 133 5 19 14 61 20 92 6 31 22 79 36 105 13 26 24 54 24 62 0 10 3 11 13 3 10 -9 15 10 25 91 10 84 19 116 52 182 58 116 75 144 118 189 39 41 62 91 39 83 -40 -12 -203 -285 -220 -367 -10 -45 -41 -145 -47 -150 -3 -3 -20 -35 -38 -72 -40 -81 -139 -218 -181 -249 -31 -23 -40 -39 -20 -39 17 0 120 101 152 150 l29 45 -7 -35 c-30 -155 -45 -407 -28 -491 4 -22 24 -51 55 -81 36 -35 55 -64 70 -108 18 -55 26 -65 80 -101 60 -40 85 -45 56 -12 -19 22 -34 83 -19 83 5 0 19 -14 31 -30 12 -17 42 -46 67 -65 42 -32 52 -35 105 -33 32 1 58 5 58 8 0 3 -12 11 -28 18 -71 32 -98 81 -29 53 18 -7 56 -20 86 -29 49 -15 54 -15 65 1 10 12 20 14 42 8 26 -7 29 -12 32 -52 1 -24 -6 -71 -16 -103 l-18 -59 -37 83 c-21 45 -40 80 -44 77 -6 -7 32 -109 55 -145 14 -22 5 -31 -14 -12 -5 5 -56 11 -112 13 -56 3 -105 7 -108 9 -3 3 3 24 12 46 9 23 14 47 12 54 -6 16 -38 -77 -38 -109 0 -12 9 -28 20 -35 31 -20 24 -30 -9 -13 -39 20 -44 39 -26 105 15 57 19 87 9 78 -8 -9 -33 -119 -34 -149 0 -21 8 -30 34 -43 19 -9 38 -16 44 -16 20 0 29 -27 36 -98 l6 -73 -24 17 c-31 19 -61 11 -83 -22 -12 -19 -22 -24 -38 -20 -28 7 -46 -12 -45 -50 0 -16 -4 -67 -10 -114 -5 -47 -12 -137 -16 -201 l-7 -115 28 -22 c23 -18 41 -22 104 -22 66 0 79 -3 95 -22 17 -20 18 -27 6 -90 -15 -80 -11 -87 56 -106 l42 -12 -2 -93 c-1 -74 3 -98 17 -120 9 -15 22 -27 28 -27 8 0 8 4 1 13 -6 7 -15 24 -21 38 -9 25 -8 25 27 19 34 -5 37 -8 34 -38 -1 -18 2 -32 6 -32 14 0 32 88 32 155 l0 65 58 0 c31 0 62 -4 68 -8 6 -4 15 -32 19 -62 11 -84 48 -140 92 -140 35 0 47 36 38 114 -8 77 -25 98 -25 32 0 -39 -3 -46 -19 -46 -11 0 -26 -3 -35 -6 -17 -6 -28 14 -39 73 l-6 32 59 0 c34 0 80 7 105 17 l46 17 -7 86 c-3 47 -9 120 -14 161 -4 41 -4 79 1 84 14 16 10 129 -7 182 -25 80 -26 97 -5 139 11 22 20 32 21 23 0 -14 30 -111 80 -264 5 -17 10 -39 10 -49 0 -21 74 -121 96 -129 21 -8 34 1 34 25 0 22 11 24 28 7 10 -10 17 -10 32 0 17 10 20 10 20 -4 0 -9 -5 -12 -11 -8 -7 4 -10 1 -7 -7 10 -29 33 -14 36 24 2 20 8 37 13 37 6 0 8 -8 5 -18 -4 -12 1 -26 14 -37 18 -16 22 -17 34 -4 15 15 48 109 52 147 3 26 -1 21 88 130 37 45 76 98 87 117 12 19 23 35 25 35 2 0 14 -9 26 -21 13 -11 36 -30 52 -43 l29 -22 -54 -32 c-30 -17 -65 -38 -79 -46 -14 -8 -46 -24 -73 -36 -29 -14 -53 -33 -62 -51 -29 -55 -15 -201 47 -489 27 -127 36 -148 56 -144 99 19 101 24 95 224 l-4 155 20 -25 c11 -14 21 -28 21 -32 1 -25 136 -281 156 -297 31 -24 65 -15 74 20 6 24 -2 154 -16 276 l-7 62 29 -1 c29 -1 158 49 202 78 32 21 52 11 52 -25 0 -26 4 -29 43 -35 43 -7 337 9 382 20 14 3 25 12 25 20 0 8 9 23 20 34 14 14 18 28 14 44 -5 23 -2 25 43 31 75 10 83 14 83 40 0 35 -28 104 -72 174 -16 25 -28 52 -28 60 0 9 -24 42 -53 74 -50 53 -56 57 -87 51 l-33 -7 34 59 34 59 -2 183 c-3 234 -17 285 -112 411 -30 41 -38 58 -30 68 12 13 6 17 -36 26 -14 2 -7 6 19 12 59 12 107 66 133 150 35 109 47 203 34 250 -15 54 -13 66 5 30 13 -28 14 -28 9 -4 -2 14 -11 68 -19 120 -22 146 -74 338 -109 404 -68 127 -232 254 -400 309 -50 17 -108 22 -91 8z m-121 -526 c52 -53 69 -68 147 -126 26 -19 48 -43 48 -52 0 -9 3 -24 6 -33 6 -15 4 -15 -27 1 -25 14 -60 19 -131 21 -101 3 -158 -9 -158 -33 0 -19 13 -18 52 5 29 17 42 19 112 11 43 -5 98 -17 121 -26 l42 -16 7 -66 c3 -37 8 -84 10 -105 4 -32 2 -36 -10 -26 -8 6 -14 20 -14 30 0 22 -85 69 -124 69 -14 0 -31 9 -40 22 -16 22 -16 22 -16 2 0 -27 -42 -48 -60 -31 -10 9 -12 8 -7 -4 3 -9 -1 -34 -8 -55 -18 -54 -10 -60 27 -19 33 38 52 44 62 19 13 -34 7 -47 -19 -42 -14 3 -27 2 -30 -2 -6 -10 12 -119 26 -152 23 -57 109 -26 109 39 0 13 -4 23 -10 23 -5 0 -10 -9 -10 -20 0 -12 -11 -25 -26 -32 -24 -11 -29 -9 -51 16 -17 20 -21 32 -14 39 8 8 15 5 24 -8 15 -20 37 -13 37 12 0 11 6 14 26 9 25 -7 25 -5 19 26 -6 27 -24 74 -43 111 -6 12 28 8 61 -9 47 -23 87 -72 87 -105 0 -15 5 -31 10 -34 6 -4 10 -64 10 -148 l0 -142 -55 -43 c-35 -28 -55 -51 -55 -64 0 -19 -86 -117 -94 -107 -1 2 -9 25 -16 51 -14 54 -26 59 -105 45 -27 -5 -90 -7 -140 -4 -75 5 -100 11 -155 39 -57 29 -65 37 -71 68 -12 60 -39 153 -49 165 -6 7 -8 14 -5 17 3 3 -11 37 -30 76 -63 126 -59 177 24 265 32 34 40 37 88 37 29 0 53 5 53 10 0 6 -25 10 -55 10 -30 0 -55 -4 -55 -8 0 -5 -12 -15 -26 -23 -15 -7 -37 -29 -50 -49 -27 -40 -31 -28 -9 28 13 32 29 46 91 81 41 23 95 63 120 88 25 24 47 43 49 41 2 -2 -7 -40 -20 -83 -14 -44 -25 -87 -25 -95 0 -51 231 247 261 337 11 34 13 36 23 19 6 -10 34 -42 61 -70z m-1195 -115 l0 -78 -37 -6 c-20 -4 -39 -5 -41 -3 -10 11 59 166 74 166 2 0 4 -35 4 -79z m344 -63 c6 -37 4 -48 -6 -48 -29 0 -34 16 -30 90 5 74 5 74 17 40 7 -19 15 -56 19 -82z m-334 -98 c0 -62 21 -115 63 -158 27 -28 94 -59 104 -48 2 2 -7 16 -20 30 -21 22 -41 75 -33 84 2 1 16 -19 33 -45 16 -27 40 -53 54 -59 155 -74 168 -78 189 -64 13 9 13 12 -3 25 -18 13 -18 15 10 49 15 20 29 33 30 28 1 -4 4 -20 8 -37 4 -17 26 -48 51 -71 41 -39 44 -45 46 -100 4 -72 -18 -109 -86 -142 -52 -26 -58 -43 -21 -60 14 -6 25 -16 25 -21 0 -11 -79 -45 -167 -72 -36 -11 -72 -23 -79 -26 -8 -3 -14 1 -14 8 0 8 -10 27 -23 42 -21 26 -28 29 -87 28 -54 0 -68 -4 -83 -22 l-17 -21 -113 55 c-114 57 -149 84 -162 125 -7 23 -6 23 22 9 27 -14 79 -15 92 -1 3 4 0 9 -7 11 -23 9 -62 53 -77 90 -9 20 -15 67 -15 110 0 64 5 83 37 151 l36 77 21 -65 c38 -118 48 -118 65 -2 18 126 19 130 49 135 72 11 72 11 72 -43z m337 -37 c-9 -88 -23 -100 -31 -26 -4 32 -9 66 -12 76 -4 13 1 17 22 17 l27 0 -6 -67z m1263 21 c0 -8 -4 -14 -10 -14 -5 0 -10 4 -10 9 0 5 -3 18 -7 28 -6 16 -5 16 10 4 9 -7 17 -20 17 -27z m108 -74 c20 -30 23 -44 20 -97 -3 -51 -9 -69 -34 -99 -36 -44 -71 -72 -99 -76 -19 -3 -20 3 -23 118 l-3 121 33 37 c41 47 73 45 106 -4z m53 -213 c-13 -66 -46 -140 -70 -160 -12 -10 -13 -8 -5 18 4 17 9 51 9 76 1 30 9 56 23 76 12 17 25 46 29 64 6 32 7 32 17 10 7 -16 6 -41 -3 -84z m-91 -126 c-4 -23 -9 -43 -11 -45 -28 -21 -102 -66 -105 -63 -7 7 21 83 37 100 16 18 17 17 24 -12 9 -41 25 -30 18 13 -7 42 26 102 38 69 4 -11 4 -38 -1 -62z m-1106 -80 c4 -28 13 -69 21 -92 20 -56 19 -81 -5 -123 -33 -55 -49 -54 -35 2 7 26 15 67 18 92 5 44 5 44 -5 10 -28 -94 -61 -178 -82 -210 -12 -19 -29 -52 -36 -72 -18 -48 -33 -49 -24 -1 l7 36 -42 -7 c-29 -4 -40 -3 -36 4 3 6 11 8 16 5 5 -4 9 -1 9 5 0 6 14 23 30 37 21 17 30 33 28 51 -2 38 23 142 34 136 4 -3 8 -24 8 -47 0 -54 15 -39 35 38 8 33 18 68 21 78 5 15 2 17 -20 11 -14 -3 -38 -3 -53 1 l-28 7 37 19 c20 10 47 32 60 47 12 16 26 28 29 26 4 -2 9 -26 13 -53z m-1204 -70 c0 -20 -15 -12 -37 22 -38 56 -38 73 0 30 20 -22 37 -46 37 -52z m2401 -17 c89 -189 142 -415 123 -529 -6 -40 -60 -157 -74 -163 -4 -2 -33 -18 -64 -37 -31 -18 -58 -30 -61 -25 -3 5 7 15 22 22 38 18 73 83 73 136 0 37 -12 56 -22 34 -4 -11 -64 -52 -76 -52 -5 0 -12 10 -15 22 -5 16 4 30 37 59 68 60 78 92 80 238 1 126 -17 251 -37 251 -5 0 -6 -10 -2 -22 7 -24 24 -280 18 -287 -3 -5 -1 -12 -57 218 -26 106 -46 194 -44 196 10 7 44 24 50 25 4 0 26 -39 49 -86z m-127 54 c2 -7 14 -53 25 -103 12 -49 38 -151 59 -226 43 -155 42 -170 -16 -231 -38 -40 -52 -47 -52 -25 0 51 -76 227 -125 292 l-36 46 28 104 c26 94 32 107 63 129 40 29 49 31 54 14z m-1854 -48 c14 -11 30 -20 35 -20 6 0 18 -11 27 -24 17 -23 17 -24 -1 -19 -10 3 -22 0 -25 -6 -11 -18 -50 -13 -69 9 -20 23 -22 34 -5 24 8 -5 9 2 5 24 -7 37 -2 39 33 12z m1642 -75 c-3 -53 -7 -73 -15 -68 -29 18 -57 48 -57 61 0 13 57 80 70 81 3 1 4 -33 2 -74z m-1304 39 c31 -9 52 -53 52 -114 0 -30 4 -50 11 -50 7 0 10 17 7 45 -2 25 0 45 4 45 5 0 8 -6 8 -14 0 -8 20 -22 45 -32 56 -21 111 -79 95 -99 -6 -8 -25 -17 -43 -21 -27 -5 -29 -8 -15 -18 11 -8 15 -23 12 -46 -2 -19 -8 -121 -12 -226 -6 -162 -10 -195 -24 -211 -10 -11 -18 -27 -18 -36 0 -15 -2 -15 -19 2 -24 24 -97 32 -256 29 -117 -2 -122 -2 -179 28 l-58 30 -2 129 -2 130 56 -116 c65 -136 92 -174 134 -189 25 -9 35 -7 56 8 54 41 75 118 95 345 7 76 8 77 36 77 42 0 79 37 86 88 4 28 2 42 -6 42 -6 0 -11 -13 -11 -29 0 -28 0 -28 -41 -17 -33 9 -45 8 -70 -6 l-29 -17 0 29 c0 31 9 36 75 42 27 3 30 7 33 42 5 57 -4 79 -38 99 -25 15 -36 17 -62 8 -39 -14 -38 -14 -32 3 5 13 26 20 74 24 8 1 25 -1 38 -4z m1726 -71 c15 -31 29 -79 32 -107 5 -58 3 -55 -22 29 -10 33 -26 79 -36 103 -26 62 -6 43 26 -25z m-994 16 c28 -8 86 -14 153 -14 l107 0 -6 -30 c-9 -41 -25 -64 -41 -58 -23 9 -115 -95 -162 -182 -55 -103 -56 -104 -86 -75 -44 42 -62 137 -57 319 l2 83 23 -14 c12 -8 42 -21 67 -29z m-1356 -34 c-10 -25 -24 -6 -24 33 l0 37 15 -28 c8 -15 12 -34 9 -42z m484 52 c7 -8 6 -18 -4 -31 -8 -11 -14 -28 -14 -38 0 -23 -7 -23 -50 3 l-34 21 27 14 c15 8 27 21 27 29 0 18 34 20 48 2z m118 -11 c10 -8 16 -18 11 -22 -4 -4 1 -16 10 -26 16 -18 16 -18 0 -12 -10 3 -17 1 -17 -5 0 -6 4 -11 10 -11 5 0 7 -7 4 -15 -4 -9 -19 -15 -39 -15 -42 0 -65 -22 -65 -64 0 -43 7 -48 41 -31 35 19 83 19 98 1 9 -11 6 -16 -18 -24 -17 -6 -48 -9 -68 -6 -33 5 -36 4 -21 -8 13 -12 15 -22 8 -59 -5 -24 -14 -91 -20 -149 -15 -128 -23 -158 -57 -198 -32 -39 -39 -39 -73 -4 -26 28 -100 141 -100 154 0 7 -45 85 -74 131 l-16 23 63 -2 c34 -2 67 -3 73 -4 21 0 48 -52 37 -70 -6 -8 -13 -31 -17 -50 -4 -27 2 -19 28 35 52 108 67 162 76 272 6 67 15 111 26 128 29 45 65 56 100 31z m300 -43 c-6 -14 -9 -14 -26 2 -26 23 -25 34 3 44 18 7 23 5 25 -11 2 -11 1 -26 -2 -35z m-532 9 c4 -10 24 -29 46 -41 22 -12 40 -27 40 -32 0 -12 -55 -2 -80 13 -24 16 -52 57 -45 68 10 16 33 11 39 -8z m456 14 c0 -33 -29 -46 -49 -22 -10 11 -8 15 6 19 25 7 43 8 43 3z m-476 -68 c15 -14 23 -28 19 -31 -14 -8 -47 10 -77 42 l-29 30 24 9 c19 7 25 6 30 -7 4 -9 19 -28 33 -43z m794 -153 l-3 -130 53 -28 c28 -16 52 -34 52 -42 0 -7 -18 -29 -41 -48 -45 -39 -41 -50 13 -38 l37 9 -6 -87 c-3 -47 -9 -90 -13 -96 -4 -5 -29 -52 -56 -104 -43 -81 -55 -96 -91 -114 -45 -22 -62 -15 -75 28 -4 11 -16 52 -28 90 -37 119 -60 217 -70 294 -10 72 -9 75 15 99 15 14 25 36 25 53 0 15 6 30 13 33 10 5 10 7 0 12 -7 3 -13 14 -13 25 0 23 40 112 53 118 5 2 17 12 25 22 9 11 22 19 28 19 15 0 39 37 49 75 l7 30 15 -45 c10 -32 13 -83 11 -175z m552 185 c0 -17 -5 -19 -32 -13 -40 7 -42 9 -33 22 3 6 19 11 36 11 22 0 29 -5 29 -20z m183 -1 c11 -18 -24 -119 -48 -139 -19 -15 -72 13 -87 46 -10 22 -7 28 37 68 51 45 81 52 98 25z m-991 -82 c-16 -17 -16 -17 -23 0 -4 10 -14 25 -23 32 -12 10 -13 18 -5 33 10 19 12 19 39 -13 26 -32 27 -35 12 -52z m-713 64 c7 -5 10 -14 6 -20 -5 -9 -10 -9 -21 0 -26 22 -14 38 15 20z m1726 -78 c-10 -38 -27 -88 -37 -113 -17 -40 -21 -43 -30 -26 -6 10 -19 27 -29 37 -11 11 -19 27 -19 36 0 13 3 14 12 5 32 -32 50 -12 93 96 25 63 31 43 10 -35z m-193 45 c4 -7 8 -21 8 -30 0 -16 -2 -16 -29 -1 -27 16 -30 16 -55 0 -18 -12 -28 -30 -32 -57 -4 -22 -11 -43 -15 -46 -12 -7 -11 -51 0 -72 5 -9 30 -33 56 -52 26 -19 54 -48 62 -64 14 -27 14 -31 -3 -44 -13 -9 -34 -12 -66 -8 -50 5 -66 -7 -23 -18 32 -8 32 -32 -1 -40 -22 -6 -25 -11 -22 -43 2 -27 8 -39 23 -43 35 -9 28 -30 -9 -30 -33 0 -66 -21 -66 -41 0 -6 -14 -2 -31 8 -27 16 -30 21 -23 48 5 17 9 91 10 165 0 74 6 150 12 169 12 35 5 64 -9 39 -4 -7 -15 -44 -23 -82 -12 -51 -14 -77 -6 -105 13 -46 13 -111 0 -111 -5 0 -10 5 -10 11 0 14 -50 79 -61 79 -16 0 -10 -18 17 -49 l26 -31 -32 0 c-22 0 -41 9 -63 31 l-31 32 27 23 c15 13 27 30 27 38 0 20 92 189 124 227 14 16 40 42 58 57 27 23 31 24 23 7 -23 -54 -38 -316 -18 -322 8 -3 11 27 12 105 1 112 19 208 47 251 14 20 22 22 52 18 19 -4 39 -12 44 -19z m359 -163 c20 -44 45 -113 55 -154 10 -40 33 -99 51 -129 28 -47 31 -57 20 -71 -7 -9 -18 -28 -25 -43 -6 -16 -16 -28 -21 -28 -18 0 -41 12 -41 22 0 13 41 47 58 48 20 0 14 35 -11 58 -16 15 -49 27 -101 36 -42 7 -80 16 -84 20 -10 11 21 59 47 72 45 23 47 32 14 66 -49 53 -55 70 -47 155 l7 76 20 -24 c11 -13 37 -60 58 -104z m-336 73 c41 -42 42 -44 38 -95 -4 -36 -2 -53 6 -53 6 0 11 5 11 12 0 7 13 -9 29 -34 16 -25 51 -68 78 -95 26 -26 65 -70 87 -96 33 -40 38 -52 33 -81 -10 -60 -68 -112 -91 -81 -6 9 -34 29 -60 43 -41 23 -51 34 -66 79 -40 116 -97 220 -136 249 -38 28 -74 63 -74 71 0 2 10 2 23 -2 19 -5 20 -4 5 5 -27 17 -22 33 8 26 17 -5 23 -3 19 4 -3 5 -14 10 -23 10 -12 0 -13 3 -4 12 7 7 12 22 12 33 0 52 50 48 105 -7z m-825 -45 l-1 -28 -14 25 c-13 22 -14 23 -14 5 0 -11 8 -40 18 -65 14 -34 20 -40 23 -25 4 19 5 19 17 -4 9 -17 10 -26 2 -34 -8 -8 -11 -7 -12 4 -1 7 -4 1 -8 -15 -5 -24 -14 -31 -51 -42 -25 -8 -48 -14 -52 -14 -10 0 -10 52 -2 142 7 71 9 73 72 77 18 1 22 -4 22 -26z m932 -97 c2 -13 21 -31 53 -48 28 -15 50 -32 49 -37 -1 -6 -2 -21 -2 -32 -2 -19 -8 -15 -44 26 -24 27 -54 64 -68 84 -14 20 -28 38 -32 39 -5 2 -8 11 -8 20 0 23 48 -24 52 -52z m-942 -141 c0 -75 81 -388 114 -440 7 -11 15 -43 18 -72 4 -43 2 -50 -10 -45 -11 4 -14 0 -10 -15 3 -12 2 -26 -2 -33 -9 -15 -90 83 -90 110 0 21 -36 147 -49 170 -27 50 -61 205 -61 280 0 46 4 79 9 76 5 -4 20 -2 33 3 42 17 48 13 48 -34z m450 -82 c8 -6 39 -15 68 -19 31 -4 52 -11 52 -19 0 -18 -89 -97 -103 -92 -7 2 -33 10 -59 18 -35 10 -47 18 -44 29 3 8 8 42 12 75 8 77 11 81 37 48 12 -15 28 -33 37 -40z m390 65 c0 -2 13 -41 29 -88 27 -81 31 -86 75 -110 75 -41 61 -50 -27 -18 -45 16 -99 34 -119 40 -45 12 -53 44 -13 54 21 5 25 12 25 45 0 30 -4 39 -17 39 -14 0 -14 2 2 20 15 16 45 28 45 18z m515 -77 c-15 -34 -32 -61 -36 -61 -5 0 -4 9 3 20 9 14 10 25 2 37 -8 13 -4 22 20 44 17 15 33 26 34 24 2 -2 -8 -31 -23 -64z m-172 14 c50 -8 91 -32 69 -42 -51 -21 -89 -81 -61 -99 6 -3 -20 -19 -57 -34 -72 -29 -93 -30 -55 -4 47 33 61 57 61 101 0 25 -8 55 -17 70 -16 24 -16 26 -2 21 9 -4 37 -9 62 -13z m-1882 -12 c11 -14 13 -40 9 -123 -6 -105 -6 -105 -8 -25 -1 47 -6 75 -11 70 -5 -6 -4 -58 2 -125 11 -117 11 -136 5 -251 l-3 -65 -55 4 c-30 2 -61 5 -67 7 -15 5 -17 99 -6 323 5 111 9 142 20 142 10 0 13 -11 11 -37 -3 -36 -2 -38 27 -38 29 0 30 2 29 43 -1 40 0 42 30 42 29 1 30 1 12 15 -12 9 -29 12 -45 8 -23 -6 -25 -5 -12 10 18 22 44 22 62 0z m1479 -2 c0 -20 -32 -34 -56 -24 -8 3 -14 14 -14 24 0 15 7 19 35 19 28 0 35 -4 35 -19z m-1540 -57 c14 -36 13 -44 -10 -44 -16 0 -20 7 -20 35 0 41 16 46 30 9z m2304 -30 c18 -20 64 -95 101 -168 l67 -131 -64 -13 c-46 -9 -64 -9 -67 -1 -2 6 -30 43 -63 82 -33 39 -80 100 -106 134 -28 38 -53 63 -65 63 -24 0 -12 18 21 32 120 48 133 48 176 2z m-2194 -69 c0 -35 -4 -67 -10 -70 -6 -4 -10 22 -10 70 0 48 4 74 10 70 6 -3 10 -35 10 -70z m36 44 c3 -6 2 -15 -4 -21 -6 -6 -11 -2 -15 11 -5 22 7 29 19 10z m1359 -9 c0 -10 -13 -16 -42 -18 -33 -2 -43 0 -43 12 0 18 17 25 55 23 19 -1 30 -7 30 -17z m88 -6 c15 -3 27 -11 27 -16 0 -6 -7 -7 -16 -4 -9 3 -29 6 -45 6 -20 0 -29 5 -29 16 0 10 6 14 18 10 9 -3 29 -8 45 -12z m-401 -7 l46 -12 -79 -104 c-43 -57 -79 -113 -80 -125 -2 -55 -26 -139 -39 -131 -4 2 -10 18 -13 35 -7 35 -24 38 -60 10 -38 -30 -65 -23 -34 9 10 11 9 13 -5 8 -13 -5 -16 0 -16 24 1 26 8 33 48 50 44 19 49 26 105 134 33 63 64 115 70 115 5 0 31 -6 57 -13z m-1002 -5 c0 -5 -11 -19 -25 -32 -28 -26 -31 -23 -13 15 10 23 38 36 38 17z m1914 2 c25 -9 106 -132 100 -149 -5 -11 -2 -13 10 -9 9 3 16 2 16 -4 0 -6 -6 -12 -12 -14 -14 -5 15 -58 32 -58 6 0 10 -7 10 -15 0 -8 7 -15 15 -15 8 0 15 8 15 18 0 13 -2 14 -9 3 -6 -9 -8 -5 -8 13 0 14 1 26 3 26 6 0 52 -84 58 -107 6 -20 5 -21 -31 -12 -75 17 -145 7 -129 -20 5 -7 12 -8 24 0 11 7 36 8 77 1 l60 -9 -37 -16 c-39 -18 -95 -22 -113 -9 -12 8 -111 181 -146 255 -16 32 -29 47 -43 48 -52 4 -112 -4 -130 -17 -21 -14 -56 -95 -56 -128 0 -31 13 -9 35 57 l21 62 71 3 c56 2 72 0 76 -13 6 -14 -9 -18 -74 -19 -14 0 -19 -17 -28 -86 -14 -107 -14 -170 -1 -170 6 0 10 30 10 69 0 37 3 88 6 113 6 42 8 44 50 54 24 6 44 6 44 2 0 -5 5 -14 10 -21 6 -7 40 -62 77 -124 53 -91 71 -113 92 -116 14 -2 -49 -5 -140 -6 -188 -1 -179 -6 -179 84 0 48 24 196 34 216 4 8 -1 4 -12 -8 -16 -18 -21 -44 -27 -123 -4 -55 -9 -100 -11 -100 -2 0 -14 5 -27 12 -12 6 -29 14 -37 18 -23 11 -23 42 0 137 25 98 37 118 81 127 17 3 45 12 62 19 80 35 128 44 161 31z m-1714 -39 c0 -36 -8 -43 -27 -24 -20 20 -121 15 -150 -7 -28 -21 -118 -182 -128 -229 -5 -22 0 -16 18 20 46 93 107 190 125 197 58 23 155 -2 171 -45 8 -20 3 -141 -17 -401 l-7 -100 -33 -8 c-55 -14 -232 33 -232 62 0 8 12 78 26 155 43 236 42 286 -2 90 -22 -100 -22 -100 -35 -67 -7 17 -17 32 -21 32 -11 0 -10 71 1 106 6 16 15 56 22 88 10 51 19 67 63 112 l51 53 88 0 87 1 0 -35z m52 -2 l1 -38 4 37 4 37 51 -6 c68 -8 113 -38 127 -85 19 -63 29 -128 20 -134 -5 -3 -9 11 -9 31 0 40 -27 95 -46 95 -6 0 -17 7 -24 15 -16 19 -63 19 -101 0 -43 -23 -69 -6 -69 45 0 33 3 40 20 40 16 0 20 -7 22 -37z m1297 -2 c11 -6 31 -11 45 -11 14 0 26 -2 26 -4 0 -17 -32 -149 -44 -185 l-16 -43 30 -28 c34 -32 34 -33 -55 -78 -66 -33 -135 -45 -142 -24 -3 6 2 12 11 12 13 0 16 12 16 55 0 60 -9 83 -55 133 -39 43 -81 63 -147 68 -29 3 -61 6 -71 6 -27 3 -15 19 36 46 31 16 49 33 53 49 l7 25 143 -5 c78 -3 152 -10 163 -16z m-1162 -68 c43 -28 52 -70 68 -295 8 -116 14 -212 13 -213 -2 -1 -18 -8 -36 -15 -31 -12 -192 -18 -209 -7 -10 6 -9 115 2 317 8 154 8 155 38 183 16 15 35 27 43 27 8 0 14 5 14 10 0 16 38 12 67 -7z m732 -69 c2 -2 -4 -10 -13 -19 -23 -24 -21 -112 5 -172 18 -42 21 -65 20 -178 -3 -173 -2 -172 -56 -173 l-43 -1 -16 67 c-18 76 -45 247 -53 339 -8 93 14 132 82 146 19 4 65 -2 74 -9z m210 -41 c48 -40 71 -80 71 -120 l-1 -28 -19 24 c-11 13 -20 33 -20 45 -1 21 -1 21 -15 1 -17 -21 -13 -58 16 -141 30 -90 44 -199 30 -242 -12 -35 -15 -37 -49 -34 -26 3 -41 10 -48 25 -6 12 -44 85 -84 162 -117 226 -128 295 -56 332 74 39 108 34 175 -24z m-1622 -40 c-2 -16 -4 -5 -4 22 0 28 2 40 4 28 2 -13 2 -35 0 -50z m13 -89 c0 -8 -4 -12 -10 -9 -5 3 -10 13 -10 21 0 8 5 12 10 9 6 -3 10 -13 10 -21z m390 -369 l0 -65 -39 0 c-35 0 -40 3 -46 29 -3 16 -3 45 1 65 6 34 8 36 45 36 l39 0 0 -65z m1277 -73 c-18 -18 -32 -10 -53 30 l-16 31 36 -7 c26 -5 36 -3 37 6 1 7 4 0 6 -16 3 -17 -1 -35 -10 -44z m-261 13 c-19 -29 -70 -35 -80 -9 -15 38 -8 47 34 41 24 -3 43 -1 47 6 5 8 8 7 11 -1 2 -7 -3 -24 -12 -37z m-738 -35 c-4 -32 -38 -39 -56 -10 -17 28 -7 41 29 38 26 -2 29 -6 27 -28z"/> <path d="M2040 2210 c0 -5 7 -10 15 -10 8 0 15 5 15 10 0 6 -7 10 -15 10 -8 0 -15 -4 -15 -10z"/> <path d="M1660 2146 c0 -9 8 -12 25 -8 28 5 24 22 -6 22 -10 0 -19 -6 -19 -14z"/> <path d="M1602 2120 c6 -18 -19 -50 -35 -44 -13 5 -22 -75 -12 -107 8 -25 25 -15 25 15 0 21 45 86 60 86 4 0 17 -8 29 -19 29 -25 18 -55 -17 -46 -25 6 -25 6 -18 -47 8 -62 49 -138 75 -138 27 0 48 22 56 58 8 38 -7 43 -23 7 -6 -14 -19 -25 -27 -25 -26 0 -55 19 -55 37 0 15 2 15 18 0 14 -13 21 -14 30 -5 7 7 12 18 12 25 0 9 8 11 27 7 23 -6 25 -5 19 12 -5 10 -13 33 -19 49 -5 17 -19 43 -30 59 l-20 28 21 -11 c12 -6 29 -24 38 -41 29 -48 46 -45 22 4 -22 45 -84 86 -131 86 -13 0 -29 6 -36 13 -11 10 -13 9 -9 -3z m107 -157 c0 -5 -4 -17 -9 -28 -8 -17 -8 -16 -7 8 1 15 5 27 9 27 4 0 8 -3 7 -7z"/> <path d="M1998 1725 l-35 -38 -33 17 c-36 17 -46 15 -37 -8 3 -8 22 -18 43 -22 32 -6 40 -3 71 29 20 19 34 40 31 47 -2 8 -18 -1 -40 -25z"/> <path d="M2140 1615 c-14 -8 -19 -14 -10 -14 8 0 24 6 34 14 25 19 9 19 -24 0z"/> <path d="M836 2042 c-6 -10 53 -26 62 -17 8 7 0 13 -29 20 -15 4 -29 2 -33 -3z"/> <path d="M647 2024 c-8 -8 3 -35 22 -55 23 -24 55 -31 127 -31 35 0 64 -4 64 -9 0 -5 5 -9 10 -9 6 0 10 6 8 13 -1 6 3 22 10 33 11 21 10 22 -82 26 -65 3 -101 9 -119 21 -29 19 -31 19 -40 11z"/> <path d="M1150 2001 c0 -6 6 -11 13 -11 6 0 23 -3 37 -6 18 -4 21 -3 10 4 -27 17 -60 24 -60 13z"/> <path d="M1135 1951 c-18 -30 54 -71 125 -71 36 0 52 -4 56 -15 4 -8 10 -12 15 -9 5 3 7 9 4 14 -3 5 9 17 27 26 30 16 31 17 13 31 -11 7 -31 11 -45 8 -22 -5 -84 3 -161 21 -15 3 -30 1 -34 -5z"/> <path d="M939 1711 c-13 -11 -21 -23 -16 -27 4 -4 13 -2 19 4 18 18 68 15 68 -3 0 -8 5 -15 10 -15 14 0 13 33 -2 48 -18 18 -53 15 -79 -7z"/> <path d="M2506 2139 c-14 -17 -26 -37 -26 -45 0 -21 17 -8 35 27 17 31 39 38 49 14 7 -19 26 -20 26 0 0 14 -29 35 -48 35 -6 0 -22 -14 -36 -31z"/> <path d="M2485 2059 c-3 -9 1 -28 9 -44 10 -19 12 -33 6 -40 -14 -16 0 -27 17 -14 18 15 16 33 -7 76 -14 26 -21 32 -25 22z"/> <path d="M1106 1328 c3 -12 13 -35 21 -52 13 -30 14 -30 8 -4 -7 38 -23 78 -30 78 -4 0 -3 -10 1 -22z"/> <path d="M945 1570 c-3 -5 3 -10 15 -10 12 0 18 5 15 10 -3 6 -10 10 -15 10 -5 0 -12 -4 -15 -10z"/> <path d="M2030 1390 c-10 -6 -7 -10 13 -16 34 -8 46 1 20 14 -11 6 -25 7 -33 2z"/> <path d="M476 780 c6 -24 71 -120 80 -120 7 0 -47 95 -69 123 l-18 22 7 -25z"/> <path d="M2538 602 c-5 -52 -4 -101 1 -109 14 -26 17 -2 11 102 l-5 100 -7 -93z"/> <path d="M846 769 c-2 -13 -10 -115 -16 -225 -12 -200 -12 -202 9 -223 11 -11 21 -17 21 -12 0 6 -4 13 -10 16 -13 8 -13 141 0 319 9 128 8 182 -4 125z"/> <path d="M709 589 c10 -44 81 -192 88 -185 3 3 -7 31 -22 63 -15 32 -34 76 -43 98 -20 53 -32 66 -23 24z"/> <path d="M2077 785 c-74 -16 -88 -30 -22 -21 28 3 76 9 107 12 32 4 55 11 52 15 -7 12 -66 9 -137 -6z"/> <path d="M1061 708 c4 -24 9 -117 10 -208 2 -146 3 -155 9 -80 7 81 3 291 -5 318 -3 6 -8 12 -13 12 -6 0 -6 -18 -1 -42z"/> <path d="M1970 641 c0 -6 4 -11 9 -11 5 0 14 -14 21 -30 7 -17 15 -29 17 -26 6 6 -24 63 -37 71 -5 3 -10 1 -10 -4z"/> <path d="M895 2988 c-11 -6 -31 -25 -45 -42 -14 -16 -40 -47 -57 -67 -29 -32 -42 -59 -28 -59 3 0 37 25 76 55 61 47 128 79 156 74 21 -4 33 2 33 16 0 8 -9 15 -19 15 -11 0 -23 5 -26 10 -8 13 -65 12 -90 -2z"/> <path d="M1192 2978 c-35 -12 -38 -31 -6 -37 23 -4 140 -86 151 -105 6 -12 14 -10 37 9 l30 24 -28 39 c-15 22 -36 48 -46 57 -24 21 -94 28 -138 13z m123 -34 c8 2 15 -5 18 -17 2 -12 8 -31 12 -42 8 -19 7 -19 -11 -4 -10 9 -28 19 -38 23 -10 3 -16 9 -12 13 8 9 -32 35 -43 28 -5 -3 -13 0 -17 6 -4 7 -3 9 4 5 6 -3 17 0 24 8 11 12 16 11 32 -6 10 -10 24 -17 31 -14z"/> <path d="M1960 2966 c0 -8 11 -17 24 -20 16 -4 52 -42 99 -105 77 -102 98 -152 141 -331 8 -36 13 -47 10 -25 -23 162 -35 217 -53 254 -12 23 -19 46 -16 51 3 6 0 10 -8 10 -8 0 -27 19 -42 42 -65 98 -155 170 -155 124z"/> <path d="M2278 2840 c-18 -9 -34 -25 -36 -34 -3 -12 3 -10 22 9 32 32 79 33 110 2 13 -13 25 -30 28 -38 3 -8 8 -11 12 -8 10 9 -14 57 -33 64 -52 22 -71 23 -103 5z"/> <path d="M1397 2816 c-8 -20 4 -46 29 -67 15 -13 16 -12 9 11 -4 14 -13 36 -20 49 -10 20 -13 21 -18 7z"/> <path d="M2029 2776 c-13 -5 -90 -10 -171 -11 -81 0 -150 -3 -153 -7 -11 -11 145 -21 224 -14 42 3 98 12 125 20 42 11 46 14 25 18 -14 2 -37 0 -50 -6z"/> <path d="M494 2753 c-96 -155 -156 -340 -153 -478 1 -39 1 -39 9 -10 5 17 16 73 25 125 19 107 62 227 112 311 18 32 33 60 33 63 0 12 -16 5 -26 -11z"/> <path d="M1640 2644 c0 -31 28 -46 90 -49 l65 -4 -63 12 c-41 8 -69 19 -78 31 -8 11 -14 15 -14 10z"/> <path d="M1250 2600 c-25 -10 -39 -19 -32 -19 16 -1 82 26 82 33 0 7 3 8 -50 -14z"/> <path d="M1127 2563 c-4 -3 -49 -10 -99 -14 l-93 -7 96 2 c52 2 104 8 115 14 15 9 16 11 3 12 -9 0 -19 -3 -22 -7z"/> <path d="M660 2545 c0 -3 -9 -37 -19 -75 -11 -38 -16 -72 -12 -74 4 -3 17 31 28 74 11 44 16 80 12 80 -5 0 -9 -2 -9 -5z"/> <path d="M1556 2465 c-10 -58 -10 -125 0 -134 11 -12 15 14 12 100 l-3 94 -9 -60z"/> <path d="M293 2235 c0 -38 2 -53 4 -32 2 20 2 52 0 70 -2 17 -4 1 -4 -38z"/> <path d="M482 2245 c-18 -30 -46 -62 -62 -70 -61 -31 -89 -140 -54 -208 9 -17 23 -58 30 -90 13 -56 77 -207 88 -207 5 0 -5 153 -10 159 -3 3 -10 -4 -18 -14 -13 -18 -15 -17 -30 19 -25 60 -20 70 22 40 12 -8 27 -12 32 -9 6 4 10 -5 10 -19 0 -14 4 -26 9 -26 6 0 10 76 10 183 1 100 5 199 10 221 5 21 6 47 3 57 -6 16 -13 9 -40 -36z m-13 -96 c24 -26 27 -112 5 -143 -8 -11 -14 -32 -14 -46 1 -25 1 -25 15 5 13 30 13 29 14 -28 l1 -58 -45 31 c-53 37 -75 74 -75 130 0 45 11 72 43 108 25 27 31 27 56 1z"/> <path d="M418 2113 c-18 -20 -38 -58 -38 -70 0 -4 11 9 25 30 29 41 29 41 56 27 12 -7 19 -7 19 -1 0 9 -31 31 -43 31 -2 0 -11 -8 -19 -17z"/> <path d="M2831 2145 c-1 -5 -6 -55 -10 -111 -10 -117 -23 -147 -94 -215 -28 -27 -46 -49 -39 -49 46 0 135 88 152 149 12 43 12 140 1 196 -5 22 -9 36 -10 30z"/> </g> </svg> 